<?xml version="1.0" encoding="UTF-8" standalone="no"?>
<!-- Created with Inkscape (http://www.inkscape.org/) -->

<svg
   xmlns:dc="http://purl.org/dc/elements/1.1/"
   xmlns:cc="http://creativecommons.org/ns#"
   xmlns:rdf="http://www.w3.org/1999/02/22-rdf-syntax-ns#"
   xmlns:svg="http://www.w3.org/2000/svg"
   xmlns="http://www.w3.org/2000/svg"
   xmlns:sodipodi="http://sodipodi.sourceforge.net/DTD/sodipodi-0.dtd"
   xmlns:inkscape="http://www.inkscape.org/namespaces/inkscape"
   id="svg2"
   version="1.1"
   inkscape:version="0.91 r13725"
   width="328.125"
   height="503.4375"
   viewBox="0 0 328.125 503.4375"
   sodipodi:docname="logo-radost.svg">
  <metadata
     id="metadata8">
    <rdf:RDF>
      <cc:Work
         rdf:about="">
        <dc:format>image/svg+xml</dc:format>
        <dc:type
           rdf:resource="http://purl.org/dc/dcmitype/StillImage" />
        <dc:title />
      </cc:Work>
    </rdf:RDF>
  </metadata>
  <defs
     id="defs6" />
  <sodipodi:namedview
     pagecolor="#ffffff"
     bordercolor="#666666"
     borderopacity="1"
     objecttolerance="10"
     gridtolerance="10"
     guidetolerance="10"
     inkscape:pageopacity="0"
     inkscape:pageshadow="2"
     inkscape:window-width="1920"
     inkscape:window-height="1137"
     id="namedview4"
     showgrid="false"
     inkscape:zoom="1.3737055"
     inkscape:cx="46.496854"
     inkscape:cy="209.39812"
     inkscape:window-x="-8"
     inkscape:window-y="-8"
     inkscape:window-maximized="1"
     inkscape:current-layer="svg2" />
  <path
     style="fill:#0000e0;fill-opacity:0.88235295;stroke:none;stroke-width:0.5;stroke-miterlimit:4;stroke-dasharray:none;stroke-opacity:1"
     d="m 207.27344,19.259766 c -4.6101,-0.08048 -9.2279,0.324592 -13.69922,1.210937 -7.72832,1.53198 -15.14087,4.705539 -21.6836,9.410156 -5.64903,4.061993 -13.28222,12.763257 -16.64062,19.503907 -7.70165,15.45799 -8.48736,21.09978 -10.5625,75.744144 -0.81261,21.39844 -1.64538,39.40581 -1.84961,40.01562 -46.049682,28.75017 -52.511124,32.71854 -77.871093,50.41016 -11.835604,8.25675 -20.354653,17.58959 -27.447266,28.79297 -6.169679,9.74553 -10.318756,20.9547 -12.425781,32.29492 -2.105634,11.33274 -1.412006,28.54163 -0.0039,34.58008 4.03535,17.30508 9.446344,30.62624 19.255859,43.23828 9.809515,12.61204 26.385865,27.23155 40.826172,34.29297 8.74936,4.17747 26.655779,9.51516 38.427739,11.80468 3.68004,0.71573 9.09417,1.37175 11.10937,1.40625 0.28101,8.94297 -0.17604,18.46563 -1.03515,26.53321 -2.30223,-1.0631 -2.88713,-1.4724 -4.33008,-2.20899 -4.73652,-2.41788 -9.68982,-2.31513 -14.94922,0.3086 -11.43548,5.70478 -15.407127,21.65416 -8.77148,35.22851 1.98077,4.05202 4.47451,6.63813 6.28906,8.4375 1.56531,1.55221 2.48837,2.29202 3.25391,2.81055 4.33519,2.93641 8.95703,4.65195 13.78125,5.28125 5.23632,0.68306 9.83351,0.76419 14.83984,-0.12695 12.198,-2.17127 19.76507,-11.09808 23.68555,-24.03711 1.68743,-6.93893 1.94438,-11.87479 2.23396,-18.26642 0.077,-1.71229 0.14923,-3.58396 0.21916,-5.63983 0.63672,-10.88825 0.53171,-19.9372 1.61328,-29.19336 14.59365,-1.63285 30.7179,-5.01875 41.60156,-10.15821 12.57734,-5.43642 21.66274,-11.36671 30.9375,-18.48437 6.94587,-5.32381 18.55135,-17.31503 23.39258,-24.16992 3.73722,-5.2917 8.43474,-14.85373 12.33789,-25.11719 3.16444,-8.32106 4.49595,-21.75786 3.26563,-32.95703 -2.19083,-19.94231 -6.57808,-31.96068 -20.23242,-45.89063 -6.77071,-6.90737 -17.1236,-12.68383 -26.77539,-16.99804 -5.83177,-2.34224 -10.46444,-3.66082 -15.42579,-3.88282 l 2.875,2.17579 c 5.07564,3.84122 18.19744,19.01388 23.23633,30.49804 4.70716,10.72815 6.54295,20.19007 5.96289,30.73047 -1.20586,21.91207 -7.09767,35.94215 -20.99414,49.93164 -3.73284,3.75782 -8.77721,7.72695 -14.23047,11.25 -7.47064,4.82637 -15.54776,9.16202 -23.95898,12.29883 -10.12256,3.77502 -18.29619,6.04936 -31.48437,7.69336 -13.52975,1.09417 -26.68489,-0.22157 -39.84376,-2.78125 -8.60234,-1.66883 -20.96651,-7.38267 -30.378905,-14.03906 -16.63218,-11.76217 -27.682776,-26.96619 -30.572266,-42.06641 -2.80204,-14.64319 -1.840751,-30.24976 4.361085,-43.40036 5.74466,-12.18119 11.035639,-21.85309 25.401823,-30.92421 39.076973,-23.07841 78.947403,-44.53509 117.078893,-69.16957 7.66088,-4.97209 14.24007,-8.98234 17.2168,-10.7832 10.81184,-6.54092 24.31049,-19.90748 31.9082,-31.59375 10.14022,-15.59694 13.26491,-26.569072 12.21289,-42.886722 -1.33362,-20.685561 -9.76573,-35.716783 -27.94922,-49.455079 -5.97256,-4.51249 -13.15808,-8.179385 -20.56445,-9.947265 -4.43377,-1.058325 -9.03443,-1.624596 -13.64454,-1.705078 z m -0.41602,33.96289 c 5.84426,-0.075 13.12742,2.66679 17.01953,8.111328 6.76226,9.459496 13.07004,23.977342 5.03711,40.357426 -4.15887,8.48041 -14.33906,19.21388 -24.21094,25.52539 -8.07031,5.33886 -16.15121,10.1493 -24.5164,15.14269 0.82925,-21.48086 -0.34402,-44.486019 2.4832,-66.187615 1.23896,-9.510187 5.44445,-15.348259 13.45117,-19.818359 3.65586,-2.041043 7.22978,-3.085861 10.73633,-3.13086 z"
     id="path4236"
     inkscape:connector-curvature="0"
     sodipodi:nodetypes="ssssscsssszcsccsssssssccccccssssccssssssccsssccsssssssssccsss" />
  <g
     id="g4360"
     style="fill:#f80200;fill-opacity:1"
     transform="translate(196.5481,33.746887)">
    <ellipse
       ry="14.753976"
       rx="15.098501"
       style="opacity:1;fill:#f80200;fill-opacity:1;fill-rule:evenodd;stroke:none;stroke-width:0.55800003;stroke-linecap:round;stroke-linejoin:miter;stroke-miterlimit:4;stroke-dasharray:none;stroke-opacity:1"
       id="path4249"
       cx="88.659996"
       cy="193.89505" />
    <ellipse
       ry="14.753976"
       rx="15.098501"
       style="opacity:1;fill:#f80200;fill-opacity:1;fill-rule:evenodd;stroke:none;stroke-width:0.55800003;stroke-linecap:round;stroke-linejoin:miter;stroke-miterlimit:4;stroke-dasharray:none;stroke-opacity:1"
       id="path4249-0"
       cx="52.36784"
       cy="156.15602" />
    <ellipse
       ry="14.753976"
       rx="15.098501"
       style="opacity:1;fill:#f80200;fill-opacity:1;fill-rule:evenodd;stroke:none;stroke-width:0.55800003;stroke-linecap:round;stroke-linejoin:miter;stroke-miterlimit:4;stroke-dasharray:none;stroke-opacity:1"
       id="path4249-4"
       cx="2.4116771"
       cy="168.90346" />
    <ellipse
       ry="14.753976"
       rx="15.098501"
       style="opacity:1;fill:#f80200;fill-opacity:1;fill-rule:evenodd;stroke:none;stroke-width:0.55800003;stroke-linecap:round;stroke-linejoin:miter;stroke-miterlimit:4;stroke-dasharray:none;stroke-opacity:1"
       id="path4249-6"
       cx="-11.71386"
       cy="216.44795" />
    <ellipse
       ry="14.753976"
       rx="15.098501"
       style="opacity:1;fill:#f80200;fill-opacity:1;fill-rule:evenodd;stroke:none;stroke-width:0.55800003;stroke-linecap:round;stroke-linejoin:miter;stroke-miterlimit:4;stroke-dasharray:none;stroke-opacity:1"
       id="path4249-07"
       cx="21.016048"
       cy="249.86688" />
  </g>
</svg>
